<svg xmlns="http://www.w3.org/2000/svg" xmlns:xlink="http://www.w3.org/1999/xlink" viewBox="0 0 231.92 203.04">
    <defs>
        <style>.cls-1{fill:#000;}.cls-2{clip-path:url(#clip-path);}.cls-3{clip-path:url(#clip-path-2);}</style>
        <clipPath id="clip-path">
            <rect class="cls-1" x="48.81" y="89.88" width="19.64" height="93.89" rx="5.08"
                  transform="translate(-60.56 47.64) rotate(-30)"/>
        </clipPath>
        <clipPath id="clip-path-2">
            <path class="cls-1"
                  d="M158.16,24.66l-74.38-.05a7.19,7.19,0,0,0-6.22,10.8l78.62,136.17a7.19,7.19,0,0,0,12.46,0l37.14-64.44a7.16,7.16,0,0,0,0-7.19L164.39,28.27A7.22,7.22,0,0,0,158.16,24.66Zm14.45,77.13a6.34,6.34,0,0,1-2.32,8.66l-6,3.49a6.35,6.35,0,0,1-8.66-2.33L129,65.46a6.33,6.33,0,0,1,2.31-8.66l6-3.49A6.35,6.35,0,0,1,146,55.64Z"/>
        </clipPath>
    </defs>
    <g id="图层_2" data-name="图层 2">
        <g id="图层_1-2" data-name="图层 1">
            <rect class="cls-1" x="48.81" y="89.88" width="19.64" height="93.89" rx="5.08"
                  transform="translate(-60.56 47.64) rotate(-30)"/>
            <g class="cls-2">
                <polygon class="cls-1"
                         points="69.67 20 21.88 102.92 69.79 185.91 165.5 185.97 213.29 103.05 165.38 20.07 69.67 20"/>
            </g>
            <path class="cls-1"
                  d="M158.16,24.66l-74.38-.05a7.19,7.19,0,0,0-6.22,10.8l78.62,136.17a7.19,7.19,0,0,0,12.46,0l37.14-64.44a7.16,7.16,0,0,0,0-7.19L164.39,28.27A7.22,7.22,0,0,0,158.16,24.66Zm14.45,77.13a6.34,6.34,0,0,1-2.32,8.66l-6,3.49a6.35,6.35,0,0,1-8.66-2.33L129,65.46a6.33,6.33,0,0,1,2.31-8.66l6-3.49A6.35,6.35,0,0,1,146,55.64Z"/>
            <g class="cls-3">
                <polygon class="cls-1"
                         points="69.67 20 21.88 102.92 69.79 185.91 165.5 185.97 213.29 103.05 165.38 20.07 69.67 20"/>
            </g>
            <path class="cls-1"
                  d="M171.11.08,74.23,0H60.54a5.51,5.51,0,0,0-4.73,2.72L20.31,64.29,2.21,95.7C.6,98.5-.89,100.76.64,104.14c1.11,2.44,2.75,4.76,4.09,7.09l43.2,74.82,6.75,11.68c1.54,2.67,2.74,4.55,6.29,4.9,9.16.91,18.88,0,28.07,0l82.2.06A5.52,5.52,0,0,0,176,200l48.38-83.93,6.84-11.86A5.54,5.54,0,0,0,226.46,96l-20.59.21c-7.05.08-7.07,11,0,11l20.59-.22-4.73-8.25L173.35,182.6l-6.84,11.86,4.73-2.72-96.88-.06H60.67l4.74,2.71L17,110.54l-6.94-12V104L58.44,20.11,65.28,8.25,60.54,11l96.88.07h13.69c7.06,0,7.07-11,0-11Z"/>
        </g>
    </g>
</svg>
