<svg xmlns="http://www.w3.org/2000/svg" xmlns:xlink="http://www.w3.org/1999/xlink" viewBox="0 0 127.08 127.27">
    <defs>
        <style>
            .cls-1,.cls-5,.cls-7{fill:#000000;}.cls-2{opacity:1;}.cls-3{fill:none;stroke:#000000;stroke-miterlimit:10;stroke-width:2.31px;}.cls-4,.cls-5{font-size:13.68px;}.cls-4{fill:#000;}.cls-4,.cls-5,.cls-6,.cls-7{font-family:PTSans-Regular,
            PT
            Sans;}.cls-6,.cls-7{font-size:9.48px;}.cls-8{clip-path:url(#clip-path);}.cls-9{clip-path:url(#clip-path-2);}
        </style>
        <clipPath id="clip-path">
            <rect class="cls-1" x="34.1" y="45.78" width="7.52" height="35.97" rx="1.95"/>
        </clipPath>
        <clipPath id="clip-path-2">
            <path class="cls-1"
                  d="M92.37,45.62,67.71,31.35a2.76,2.76,0,0,0-4.14,2.39V94a2.76,2.76,0,0,0,4.14,2.39L92.37,82.11a2.74,2.74,0,0,0,1.38-2.39V48A2.74,2.74,0,0,0,92.37,45.62ZM82.39,74A2.42,2.42,0,0,1,80,76.41H77.3A2.43,2.43,0,0,1,74.87,74V53.56a2.43,2.43,0,0,1,2.43-2.43H80a2.42,2.42,0,0,1,2.42,2.43Z"/>
        </clipPath>
    </defs>
    <g id="图层_2" data-name="图层 2">
        <g id="图层_1-2" data-name="图层 1">
            <g class="cls-2">
                <ellipse class="cls-3" cx="63.54" cy="63.64" rx="62.38" ry="62.48"/>
                <text class="cls-4" transform="translate(40.11 118) rotate(19.65)">Z</text>
                <text class="cls-4" transform="translate(47.77 120.6) rotate(13.42)">J</text>
                <text class="cls-4" transform="translate(52.36 121.8) rotate(6.4)">U</text>
                <text class="cls-4" transform="translate(62.03 122.69) rotate(-0.93)">·</text>
                <text class="cls-4" transform="matrix(1, -0.08, 0.08, 1, 66.02, 122.64)">I</text>
                <text class="cls-4" transform="translate(70.77 122.38) rotate(-11.43)">D</text>
                <text class="cls-4" transform="matrix(0.93, -0.36, 0.36, 0.93, 80.51, 120.3)">G</text>
                <text class="cls-5" transform="translate(40.11 118) rotate(19.65)">Z</text>
                <text class="cls-5" transform="translate(47.77 120.6) rotate(13.42)">J</text>
                <text class="cls-5" transform="translate(52.36 121.8) rotate(6.4)">U</text>
                <text class="cls-5" transform="translate(62.03 122.69) rotate(-0.93)">·</text>
                <text class="cls-5" transform="matrix(1, -0.08, 0.08, 1, 66.02, 122.64)">I</text>
                <text class="cls-5" transform="translate(70.77 122.38) rotate(-11.43)">D</text>
                <text class="cls-5" transform="matrix(0.93, -0.36, 0.36, 0.93, 80.51, 120.3)">G</text>
                <text class="cls-6" transform="translate(24.25 28.6) rotate(-46.8)">I</text>
                <text class="cls-6" transform="translate(26.03 26.64) rotate(-42.61)">n</text>
                <text class="cls-6" transform="matrix(0.78, -0.62, 0.62, 0.79, 29.76, 23.25)">t</text>
                <text class="cls-6" transform="matrix(0.83, -0.56, 0.56, 0.83, 32.09, 21.37)">e</text>
                <text class="cls-6" transform="translate(35.98 18.77) rotate(-29.85)">r</text>
                <text class="cls-6" transform="translate(38.66 17.19) rotate(-25.63)">a</text>
                <text class="cls-6" transform="matrix(0.93, -0.36, 0.36, 0.93, 42.78, 15.22)">c</text>
                <text class="cls-6" transform="translate(46.67 13.75) rotate(-16.86)">t</text>
                <text class="cls-6" transform="matrix(0.97, -0.24, 0.24, 0.97, 49.67, 12.85)">i</text>
                <text class="cls-6" transform="translate(52.01 12.24) rotate(-10.01)">v</text>
                <text class="cls-6" transform="matrix(0.99, -0.09, 0.09, 1, 56.26, 11.47)">e</text>
                <text class="cls-6" transform="translate(60.95 11.09) rotate(-1.3)"></text>
                <text class="cls-6" transform="translate(63.35 10.96) rotate(3.25)">D</text>
                <text class="cls-6" transform="matrix(0.99, 0.16, -0.16, 0.99, 69.38, 11.33)">a</text>
                <text class="cls-6" transform="matrix(0.97, 0.23, -0.23, 0.97, 73.89, 12.07)">t</text>
                <text class="cls-6" transform="translate(76.9 12.74) rotate(17.44)">a</text>
                <text class="cls-6" transform="translate(81.26 14.14) rotate(21.29)"></text>
                <text class="cls-6" transform="translate(83.52 14.95) rotate(25.72)">G</text>
                <text class="cls-6" transform="translate(88.6 17.45) rotate(30.5)">r</text>
                <text class="cls-6" transform="translate(91.3 19) rotate(34.9)">o</text>
                <text class="cls-6" transform="translate(95.33 21.8) rotate(40.26)">u</text>
                <text class="cls-6" transform="translate(99.12 25) rotate(45.64)">p</text>
                <text class="cls-7" transform="translate(24.25 28.6) rotate(-46.8)">I</text>
                <text class="cls-7" transform="translate(26.03 26.64) rotate(-42.61)">n</text>
                <text class="cls-7" transform="matrix(0.78, -0.62, 0.62, 0.79, 29.76, 23.25)">t</text>
                <text class="cls-7" transform="matrix(0.83, -0.56, 0.56, 0.83, 32.09, 21.37)">e</text>
                <text class="cls-7" transform="translate(35.98 18.77) rotate(-29.85)">r</text>
                <text class="cls-7" transform="translate(38.66 17.19) rotate(-25.63)">a</text>
                <text class="cls-7" transform="matrix(0.93, -0.36, 0.36, 0.93, 42.78, 15.22)">c</text>
                <text class="cls-7" transform="translate(46.67 13.75) rotate(-16.86)">t</text>
                <text class="cls-7" transform="matrix(0.97, -0.24, 0.24, 0.97, 49.67, 12.85)">i</text>
                <text class="cls-7" transform="translate(52.01 12.24) rotate(-10.01)">v</text>
                <text class="cls-7" transform="matrix(0.99, -0.09, 0.09, 1, 56.26, 11.47)">e</text>
                <text class="cls-7" transform="translate(60.95 11.09) rotate(-1.3)"></text>
                <text class="cls-7" transform="translate(63.35 10.96) rotate(3.25)">D</text>
                <text class="cls-7" transform="matrix(0.99, 0.16, -0.16, 0.99, 69.38, 11.33)">a</text>
                <text class="cls-7" transform="matrix(0.97, 0.23, -0.23, 0.97, 73.89, 12.07)">t</text>
                <text class="cls-7" transform="translate(76.9 12.74) rotate(17.44)">a</text>
                <text class="cls-7" transform="translate(81.26 14.14) rotate(21.29)"></text>
                <text class="cls-7" transform="translate(83.52 14.95) rotate(25.72)">G</text>
                <text class="cls-7" transform="translate(88.6 17.45) rotate(30.5)">r</text>
                <text class="cls-7" transform="translate(91.3 19) rotate(34.9)">o</text>
                <text class="cls-7" transform="translate(95.33 21.8) rotate(40.26)">u</text>
                <text class="cls-7" transform="translate(99.12 25) rotate(45.64)">p</text>
                <rect class="cls-1" x="34.1" y="45.78" width="7.52" height="35.97" rx="1.95"/>
                <g class="cls-8">
                    <polygon class="cls-1"
                             points="63.91 27.12 32.16 45.48 32.16 82.19 63.91 100.55 95.65 82.19 95.65 45.48 63.91 27.12"/>
                </g>
                <path class="cls-1"
                      d="M92.37,45.62,67.71,31.35a2.76,2.76,0,0,0-4.14,2.39V94a2.76,2.76,0,0,0,4.14,2.39L92.37,82.11a2.74,2.74,0,0,0,1.38-2.39V48A2.74,2.74,0,0,0,92.37,45.62ZM82.39,74A2.42,2.42,0,0,1,80,76.41H77.3A2.43,2.43,0,0,1,74.87,74V53.56a2.43,2.43,0,0,1,2.43-2.43H80a2.42,2.42,0,0,1,2.42,2.43Z"/>
                <g class="cls-9">
                    <polygon class="cls-1"
                             points="63.91 27.12 32.16 45.48 32.16 82.19 63.91 100.55 95.65 82.19 95.65 45.48 63.91 27.12"/>
                </g>
                <path class="cls-1"
                      d="M101,40.56,64.36,19.35a1.4,1.4,0,0,0-1.4,0l-24.26,14c-3.75,2.17-8.41,4.07-11.78,6.81-1.6,1.31-1.32,2.27-1.32,4.35V78.28c0,2.08-.72,5.42.7,7.1,1.76,2.08,6.16,3.56,8.49,4.91L63,106.58a1.4,1.4,0,0,0,1.4,0L101,85.37a1.4,1.4,0,0,0,0-2.4L94.16,79.1a1.39,1.39,0,0,0-1.4,2.4l6.87,3.87V83c-12.15,7-24.74,13.59-36.57,21.15,1-.63,1.54.63.39-.46a19.65,19.65,0,0,0-3.59-2.08L48.17,94.82,35.46,87.47c-2.1-1.22-5.05-3.79-7.45-4.31,0,0-.13,1.45.36.28.38-.9,0-2.85,0-3.81V52c0-2.47,1-7.24,0-9.54-.51-1.21,0,.19-.45.33a17.85,17.85,0,0,0,2.9-1.67l10.94-6.33,12.58-7.28c2.8-1.62,6.51-3,9-5.18,1.43-1.24.45,0-.11-.47a19.26,19.26,0,0,0,3.15,1.82l12.38,7.16L99.63,43a1.39,1.39,0,0,0,1.4-2.4Z"/>
            </g>
        </g>
    </g>
</svg>
